<svg xmlns="http://www.w3.org/2000/svg" shape-rendering="geometricPrecision" text-rendering="geometricPrecision" image-rendering="optimizeQuality" fill-rule="evenodd" clip-rule="evenodd" viewBox="0 0 512 512"><path fill="#0983E0" fill-rule="nonzero" d="M256 0c70.425 0 134.454 28.817 180.807 75.17C483.183 121.546 512 185.575 512 256c0 70.309-28.794 134.291-75.193 180.714C390.245 483.23 326.286 512 256 512c-70.425 0-134.454-28.817-180.83-75.193C28.817 390.454 0 326.425 0 256c0-70.355 28.817-134.361 75.17-180.737C121.639 28.817 185.645 0 256 0z"/><path fill="#88DFF3" d="M256 19.7c129.965 0 236.3 106.335 236.3 236.3 0 129.965-106.335 236.3-236.3 236.3-129.965 0-236.3-106.335-236.3-236.3C19.7 126.035 126.035 19.7 256 19.7z"/><path fill="#A3EDFD" d="M255.977 29.468h.046c124.593 0 226.509 101.916 226.509 226.509v.046c0 124.593-101.916 226.509-226.509 226.509h-.046c-124.593 0-226.509-101.916-226.509-226.509v-.046c0-124.593 101.916-226.509 226.509-226.509z"/><path fill="#E8FBFD" d="M253.865 37.167c121.92 0 221.647 99.727 221.647 221.648 0 5.692-.215 11.288-.645 16.884C456.093 146.46 344.169 46.398 209.932 46.398c-7.534 0-14.995.335-22.361.957 20.95-6.625 43.215-10.188 66.294-10.188z"/><path fill="#fff" fill-rule="nonzero" d="M263.954 299.527c5.698 0 10.303-.744 13.653-2.14 4.116-1.721 7.605-3.651 10.326-5.675l10.443-7.977c2.465-1.814 4.977-3.21 7.466-4.14 3.139-1.186 6.419-1.814 9.698-1.814 7.024 0 12.513 2.907 16.351 8.582 2.674 3.931 4 8.815 4 14.536 0 3.791-.465 8.257-1.349 13.281l-3.233 14.908c-.651 2.767-1.767 5.628-3.256 8.466a50.982 50.982 0 01-4.954 7.605l-.721.861c-1.837 2.233-3.954 4.396-6.256 6.442a72.94 72.94 0 01-8.443 6.396c-6.186 4-13.745 7.35-22.49 9.885-4.396 1.279-9.117 2.232-14.071 2.861-5.024.627-10.141.976-15.257.976-10.839 0-21.723-1.628-32.631-4.814a79.487 79.487 0 01-16.49-6.931c-5.14-2.884-10.048-6.419-14.583-10.489-4.558-4.117-8.768-8.955-12.489-14.536-3.629-5.42-6.815-11.443-9.443-17.932l-.395-1.07c-2.512-6.42-4.443-13.583-5.699-21.281-1.302-8.024-1.977-16.676-1.977-25.863 0-6.373.465-14.025 1.372-22.816.907-8.954 2.722-18.141 5.35-27.468 1.349-4.791 3.024-9.605 4.884-14.28 1.907-4.768 4.047-9.443 6.419-13.908l.512-.884c5-9.233 11.489-17.629 19.327-25.049a87.806 87.806 0 0113.792-10.652l.605-.372c4.791-2.907 10.001-5.512 15.443-7.722 5.931-2.372 12.443-4.186 19.42-5.349 6.815-1.14 14.048-1.745 21.63-1.745 12.42 0 23.491 1.582 33.096 4.652 4.838 1.559 9.373 3.489 13.513 5.698 4.326 2.303 8.233 4.955 11.652 7.885a59.272 59.272 0 019.211 9.954 55.37 55.37 0 016.535 11.722 65.816 65.816 0 014.931 25.072c0 16.653-5.396 29.259-16.118 37.678-4.954 3.907-10.954 6.838-17.839 8.745-6.303 1.744-13.35 2.651-20.978 2.651-6.862 0-12.071-1.116-15.583-3.349-5.582-3.558-8.396-9.047-8.396-16.443.232-5.535-.094-16.35-1.303-22.072l-1.233.024c-3.256 0-5.837.558-7.628 1.627a20.992 20.992 0 00-6.233 5.745l-2.745 4.512-2.256 5.233a96.863 96.863 0 00-3.605 13.35c-.907 4.652-1.511 9.047-1.721 13.048l-.419 11.722c.047 13.769 1.861 22.956 5.397 27.491 2.674 3.442 7.628 5.163 14.768 5.163z"/><path fill="#0983E0" fill-rule="nonzero" d="M263.954 314.296c7.606 0 14.071-1.116 19.374-3.349 5.303-2.233 9.815-4.745 13.536-7.536a655.66 655.66 0 009.885-7.536c2.884-2.209 5.814-3.325 8.791-3.325 3.722 0 5.582 2.767 5.582 8.349 0 2.977-.372 6.559-1.116 10.745-.744 4.187-1.768 8.885-3.07 14.095-.744 3.163-2.559 6.605-5.443 10.303-2.884 3.721-6.814 7.21-11.838 10.466-5.024 3.256-11.21 5.954-18.56 8.094-7.349 2.14-15.745 3.209-25.234 3.209-9.49 0-18.979-1.395-28.468-4.186-9.466-2.791-17.932-7.536-25.374-14.234-7.443-6.675-13.49-15.699-18.119-27.049-4.651-11.35-6.977-25.56-6.977-42.678 0-6.14.419-13.257 1.256-21.328.837-8.093 2.465-16.42 4.884-24.979 2.419-8.535 5.791-16.955 10.164-25.234 4.373-8.28 10.001-15.676 16.885-22.188 6.884-6.489 15.304-11.746 25.235-15.746 9.954-4.001 21.816-6.001 35.561-6.001 10.978 0 20.514 1.303 28.608 3.908 8.07 2.604 14.768 6.186 20.071 10.745 5.303 4.558 9.21 9.884 11.722 16.025 2.512 6.14 3.768 12.652 3.768 19.536 0 11.885-3.489 20.584-10.466 26.072-6.978 5.489-16.886 8.234-29.7 8.234-4.094 0-6.652-.326-7.676-.977-1.023-.651-1.535-2-1.535-4.047-.186-6.326-.372-11.815-.558-16.467-.186-4.628-.837-8.489-1.954-11.559-1.116-3.07-2.837-5.303-5.163-6.698-2.325-1.396-5.535-2.093-9.629-2.093-5.93 0-11.001 1.256-15.187 3.768-4.186 2.511-7.722 5.767-10.606 9.768-2.884 4-5.209 8.489-6.977 13.513a110.023 110.023 0 00-4.186 15.35c-1.024 5.209-1.675 10.233-1.954 15.071-.279 4.814-.419 9.001-.419 12.536 0 17.118 2.838 29.282 8.513 36.538 5.675 7.257 14.466 10.885 26.374 10.885z"/></svg>